<svg xmlns="http://www.w3.org/2000/svg" width="512" height="512" viewBox="0 0 512 512">
  <rect width="512" height="512" fill="#3b82f6" rx="64"/>
  <path fill="white" d="M256 96c-44.2 0-80 35.8-80 80v80c0 44.2 35.8 80 80 80s80-35.8 80-80V176c0-44.2-35.8-80-80-80zm0 40c22.1 0 40 17.9 40 40v80c0 22.1-17.9 40-40 40s-40-17.9-40-40V176c0-22.1 17.9-40 40-40zm104 120c0 5.5-4.5 10-10 10H162c-5.5 0-10-4.5-10-10s4.5-10 10-10h188c5.5 0 10 4.5 10 10zm0 80c0 5.5-4.5 10-10 10H162c-5.5 0-10-4.5-10-10s4.5-10 10-10h188c5.5 0 10 4.5 10 10z"/>
</svg>
